# xmcd CD database file
#
# Track frame offsets:
#	182
#	17675
#	67112
#	86067
#	102300
#	121687
#	149262
#	174280
#
# Disc length: 2811 seconds
#
# Revision: 0
# Processed by: cddbd v1.5.2PL0 Copyright (c) Steve Scherf et al.
# Submitted via: CDex 1.70beta2
#
DISCID=640af908
DTITLE=Ken McIntyre - Open Horizon
DYEAR=1994
DGENRE=Jazz
TTITLE0=Sister Precious
TTITLE1=Don't I
TTITLE2=Daybreak
TTITLE3=Puunti
TTITLE4=Open Horizon
TTITLE5=Jawne
TTITLE6=Sendai
TTITLE7=Bee Pod
EXTD=YEAR: 1994
EXTT0=
EXTT1=
EXTT2=
EXTT3=
EXTT4=
EXTT5=
EXTT6=
EXTT7=
PLAYORDER=
